<svg width="160" height="60" viewBox="0 0 160 60" xmlns="http://www.w3.org/2000/svg">
  <!-- Faslet logo with measurement marks and text -->
  <!-- Ruler marks on the left side -->
  <rect x="10" y="10" width="2" height="40" fill="#39b778"/>
  <rect x="12" y="10" width="8" height="1" fill="#39b778"/>
  <rect x="12" y="15" width="5" height="1" fill="#39b778"/>
  <rect x="12" y="20" width="8" height="1" fill="#39b778"/>
  <rect x="12" y="25" width="5" height="1" fill="#39b778"/>
  <rect x="12" y="30" width="8" height="1" fill="#39b778"/>
  <rect x="12" y="35" width="5" height="1" fill="#39b778"/>
  <rect x="12" y="40" width="8" height="1" fill="#39b778"/>
  <rect x="12" y="45" width="5" height="1" fill="#39b778"/>
  <rect x="12" y="50" width="8" height="1" fill="#39b778"/>
  
  <!-- Main "F" letter -->
  <path d="M26,10 h20 v7 h-13 v8 h10 v7 h-10 v18 h-7 z" fill="#39b778"/>
  
  <!-- "aslet." text -->
  <path d="M60,35 c-3.5,0 -6,-3 -6,-7 c0,-4 2.5,-7 6,-7 c3.5,0 6,3 6,7 c0,4 -2.5,7 -6,7 z m0,-4 c1.5,0 2.5,-1.2 2.5,-3 c0,-1.8 -1,-3 -2.5,-3 c-1.5,0 -2.5,1.2 -2.5,3 c0,1.8 1,3 2.5,3 z" fill="#39b778"/>
  <path d="M74,35 c-3,0 -5,-1.5 -5.5,-4 h3.5 c0.2,1 0.8,1.5 2,1.5 c1,0 1.5,-0.4 1.5,-1 c0,-1.8 -6.5,-0.7 -6.5,-5.5 c0,-2.3 1.8,-4 5,-4 c2.8,0 4.7,1.4 5,3.5 h-3.5 c-0.2,-0.7 -0.7,-1 -1.5,-1 c-0.8,0 -1.3,0.3 -1.3,0.8 c0,1.7 6.5,0.7 6.5,5.5 c0,2.5 -2,4.2 -5.2,4.2 z" fill="#39b778"/>
  <path d="M80,14 h4 v28 h-4 z" fill="#39b778"/>
  <path d="M99,35 c-4,0 -6.5,-3 -6.5,-7 c0,-4 2.5,-7 6.5,-7 c3.2,0 5.5,2 6,5 h-4 c-0.3,-1 -1,-1.5 -2,-1.5 c-1.5,0 -2.5,1.2 -2.5,3 c0,1.8 1,3 2.5,3 c1,0 1.7,-0.5 2,-1.5 h4 c-0.5,3 -2.8,5 -6,5 z" fill="#39b778"/>
  <path d="M107,22 h4 v13 h-4 z M107,14 h4 v4 h-4 z" fill="#39b778"/>
  <circle cx="117" cy="35" r="2" fill="#39b778"/>
</svg> 